<?xml version="1.0" standalone="no"?>
<!DOCTYPE svg PUBLIC "-//W3C//DTD SVG 20010904//EN"
 "http://www.w3.org/TR/2001/REC-SVG-20010904/DTD/svg10.dtd">
<svg version="1.0" xmlns="http://www.w3.org/2000/svg"
 width="417.000000pt" height="417.000000pt" viewBox="0 0 417.000000 417.000000"
 preserveAspectRatio="xMidYMid meet">
<metadata>
Created by potrace 1.14, written by Peter Selinger 2001-2017
</metadata>
<g transform="translate(0.000000,417.000000) scale(0.100000,-0.100000)"
fill="#000000" stroke="none">
<path d="M945 3870 c-8 -13 -18 -10 87 -24 61 -8 112 -38 140 -84 20 -32 23
-50 23 -127 -1 -49 -4 -107 -8 -128 -9 -46 -130 -559 -153 -642 -8 -33 -17
-69 -20 -80 -2 -11 -13 -56 -23 -100 -11 -44 -36 -147 -56 -230 -19 -82 -49
-202 -65 -265 -16 -63 -31 -127 -34 -141 -2 -14 -11 -53 -20 -85 -16 -61 -133
-539 -140 -577 -3 -12 -20 -83 -40 -157 -120 -465 -240 -637 -635 -917 -3 -2
0 -7 5 -12 7 -8 78 11 202 54 7 2 16 5 20 6 4 1 61 24 126 51 574 236 849 515
1018 1033 16 49 81 296 93 355 7 32 36 152 80 335 26 105 48 197 50 205 12 54
97 401 105 430 6 19 31 121 56 225 103 433 116 481 133 534 62 184 134 268
262 305 53 16 170 22 214 12 154 -34 190 -149 131 -411 -20 -91 -67 -282 -227
-935 -61 -247 -66 -266 -73 -297 -9 -38 -109 -447 -152 -623 -26 -102 -48
-194 -50 -205 -17 -89 -77 -225 -126 -288 -51 -64 -160 -116 -252 -120 -54 -2
-79 -26 -29 -28 35 -1 2131 -1 2194 0 l47 1 42 108 c24 59 49 121 56 137 7 17
50 125 94 240 45 116 85 219 90 230 13 30 60 148 60 152 0 2 -6 3 -13 3 -14 0
-34 -21 -102 -105 -96 -121 -266 -296 -375 -387 -278 -232 -497 -315 -830
-313 -188 2 -225 19 -222 105 0 14 30 146 66 293 36 148 68 278 70 290 3 12
28 116 56 232 29 115 53 216 55 225 2 8 22 92 45 185 23 94 43 177 45 185 2 8
22 91 44 184 23 93 43 178 46 190 2 12 18 77 35 146 17 69 33 133 35 144 26
119 92 360 114 416 66 161 178 246 334 252 32 1 47 6 47 15 0 11 -227 13
-1334 13 -879 0 -1337 -3 -1341 -10z"/>
</g>
</svg>
